<?xml version="1.0" encoding="UTF-8"?><svg id="Layer_1" xmlns="http://www.w3.org/2000/svg" viewBox="0 0 128 128"><path d="M63.9996,6.1586c-15.1434,0-27.4628,12.32-27.4628,27.4634s12.3195,27.4634,27.4628,27.4634,27.4636-12.32,27.4636-27.4634-12.3202-27.4634-27.4636-27.4634ZM63.9996,52.2799c-12.3023,0-22.3107-8.3699-22.3107-18.6579s10.0085-18.6579,22.3107-18.6579,22.311,8.3699,22.311,18.6579-10.0085,18.6579-22.311,18.6579Z" fill="#fefffd"/><path d="M88.0538,62.6612c-1.4673-1.4584-3.6393-2.1398-6.8276-2.1398-.0481,0-.097.0003-.1461.0005l-.2735.0018-.221.1618c-4.8391,3.5473-10.565,5.4223-16.5586,5.4223-5.9718,0-11.6823-1.8636-16.5126-5.3898l-.2657-.1938-.3273.0367c-5.6627.6349-6.8232,4.4194-6.8232,9.9065,0,7.8854,6.8986,24.527,20.5052,49.4618.9661,1.7714,2.7006,2.8373,4.6387,2.8518.0135.0005.0263.0005.0398.0005,1.917,0,3.644-1.0344,4.6265-2.7723.8335-1.4747,20.4132-36.2723,20.4132-49.6272,0-3.7814-.6991-6.1625-2.2677-7.7208ZM76.1165,78.0518l-9.4539,16.3747c-.6458,1.1182-2.2597,1.1182-2.9052,0l-9.4541-16.3747c-.7401-1.2821.4225-2.8245,1.8588-2.4661l8.6417,2.1565c.2667.0666.5457.0666.8122,0l8.6417-2.1565c1.4363-.3584,2.5989,1.184,1.8588,2.4661Z" fill="#fefffd"/><path d="M65.2835,123.4879c-.0137,0-.0274,0-.0412-.0005-1.9822-.0148-3.7553-1.1054-4.7435-2.9165-13.9153-25.5006-20.9704-42.5199-20.9704-50.5842,0-5.6113,1.1867-9.4817,6.978-10.1315l.3347-.0375.2719.1985c4.9404,3.6064,10.7798,5.5126,16.8873,5.5126,6.1286,0,11.9849-1.9178,16.9343-5.5459l.2259-.1658.2803-.0016c.0491-.0005.0987-.0005.1478-.0005,3.2612,0,5.4825.6968,6.9838,2.1886,1.6037,1.5937,2.319,4.0287,2.319,7.896,0,13.6577-20.0239,49.245-20.8764,50.7531-1.0045,1.7779-2.7713,2.8352-4.7314,2.8352ZM46.3729,61.6151c-3.863.5342-5.1151,2.6246-5.1151,8.3716,0,7.6621,7.1786,24.8672,20.7592,49.7555.6831,1.2521,1.8935,2.0059,3.2385,2.016h.0269c1.3287,0,2.5333-.7295,3.2269-1.9563,7.1432-12.6395,20.6526-39.3347,20.6526-49.9022,0-3.3694-.558-5.4266-1.8085-6.6692-1.1376-1.1297-2.9297-1.6681-5.6266-1.6855-5.1996,3.7389-11.3224,5.7132-17.7266,5.7132-6.362,0-12.4494-1.95-17.6274-5.643Z" fill="#525351"/><path d="M64.0003,62.287c-15.9287,0-28.8875-12.9588-28.8875-28.8875s12.9588-28.8875,28.8875-28.8875,28.8869,12.9588,28.8869,28.8875-12.9583,28.8875-28.8869,28.8875ZM64.0003,6.2419c-14.9748,0-27.1582,12.1828-27.1582,27.1576s12.1834,27.1582,27.1582,27.1582,27.1576-12.1831,27.1576-27.1582-12.1828-27.1576-27.1576-27.1576Z" fill="#525351"/><ellipse cx="64.0002" cy="33.3995" rx="22.603" ry="18.7605" fill="#343534"/><path d="M56.0624,26.7533c5.3304-1.1817,5.8822,10.4995.8165,10.7548-4.5758.2308-5.0298-9.8211-.8165-10.7548h0Z" fill="#65ec55" fill-rule="evenodd"/><path d="M70.6833,26.4515c4.2063-.878,5.8505,8.103,1.9457,10.4219-5.2524,3.1184-7.1285-9.3401-1.9457-10.4219h0Z" fill="#65ec55" fill-rule="evenodd"/><path d="M65.2096,95.8791c-.812,0-1.5398-.4203-1.9461-1.1237l-9.6685-16.7463c-.4587-.7948-.4005-1.744.1517-2.477.5528-.7325,1.4484-1.0489,2.3388-.8276l8.8378,2.2053c.1865.0468.3855.0468.573,0l8.8378-2.2053c.8884-.2208,1.7866.0951,2.3383.8276.5528.733.6109,1.6822.1522,2.477l-9.6685,16.7463c-.4063.7034-1.1341,1.1237-1.9466,1.1237ZM55.5244,75.6989c-.3631,0-.6961.1668-.9278.4738-.2956.3917-.3252.8795-.08,1.3045l9.6685,16.7463c.214.3704.5969.5917,1.0245.5917.4281,0,.8109-.2213,1.025-.5917l9.6685-16.7463c.2452-.425.2156-.9123-.08-1.3045-.2951-.3912-.7543-.5538-1.2312-.4359l-8.8378,2.2058c-.3564.0883-.732.0883-1.0884,0l-8.8378-2.2053c-.1023-.026-.2042-.0384-.3034-.0384Z" fill="#525351"/><path d="M66.6954,94.4893l9.6684-16.7462c.757-1.3112-.4319-2.8886-1.9009-2.522l-8.8378,2.2054c-.2727.0681-.558.0681-.8307,0l-8.8378-2.2054c-1.469-.3666-2.6579,1.2108-1.9009,2.522l9.6684,16.7462c.6602,1.1436,2.3109,1.1436,2.9711,0Z" fill="#65ec55"/></svg>
