<?xml version="1.0" encoding="UTF-8"?><svg id="Layer_1" xmlns="http://www.w3.org/2000/svg" viewBox="0 0 1267.3365 227.9512"><path d="M203.5615,46.5934h-36.6997v-20.3871h98.4822v20.3871h-36.6973v62.033h-25.0853v-62.033Z" fill="#fff"/><path d="M372.5919,26.2063v18.6581h-66.6012v14.2127h62.7699v16.3077h-62.7699v14.5835h67.4657v18.6581h-92.1802V26.2063h91.3157Z" fill="#fff"/><path d="M470.5756,77.6099c0,5.9336-1.3606,8.5247-4.9438,10.0081-3.4604,1.4834-6.1792,1.6086-24.8374,1.6086-24.0955,0-25.9475-1.4834-25.9475-21.254,0-13.3458.6167-16.6834,3.5835-19.3998,3.0896-2.7211,6.7957-3.2124,27.3079-3.2124,21.7478,0,23.5996.7417,24.0957,9.7625h23.9705v-2.7212c0-12.108-3.0898-19.3998-9.7603-22.7374-7.0437-3.458-13.7166-4.0745-44.4851-4.0745-23.1057,0-31.0139,1.1125-38.4287,5.4376-8.6499,4.9414-11.1206,12.7244-11.1206,34.4745,0,24.4664,2.3479,33.1164,10.5017,38.3035,6.6729,4.325,14.3354,5.4375,38.0603,5.4375,16.4329,0,26.3184-.1252,31.385-.6165,12.8496-.8669,19.5225-4.2046,22.7373-11.2459,1.729-3.7085,2.1001-7.783,2.2227-19.7706h-24.3411Z" fill="#fff"/><path d="M514.0637,26.2063h25.0853v30.5204h57.0868v-30.5204h25.0829v82.4201h-25.0829v-31.5126h-57.0868v31.5126h-25.0853V26.2063Z" fill="#fff"/><path d="M642.6883,26.2063h87.4844v18.6581h-62.5243v16.433h59.3119v18.6629h-59.3119v28.6662h-24.9601V26.2063Z" fill="#fff"/><path d="M857.9353,48.6933c-1.729-13.2205-7.9082-19.7706-20.6377-22.1161-5.8035-.9874-13.0952-1.2378-36.8198-1.2378-21.7502,0-29.2876.4961-36.2036,2.4755-9.2715,2.7164-14.0876,7.4122-16.438,16.1874-1.4834,5.5579-1.729,9.016-1.729,22.8578,0,18.0416.7417,24.0956,3.9541,30.1496,3.092,6.054,8.4043,9.5168,17.5457,11.1207,4.9463.9874,14.9543,1.3582,34.5999,1.3582,8.0334,0,19.0288-.1204,23.479-.3708,11.9829-.4913,18.9038-2.4708,23.8452-6.6705,7.0461-5.8083,9.146-13.8418,9.146-33.7328,0-10.0081-.2456-16.6834-.7417-20.0211ZM830.7524,84.6512c-2.8416,3.9542-7.2917,4.6959-28.9167,4.6959-18.9036,0-22.9829-.4913-26.3206-3.2125-3.0872-2.5911-4.0745-7.0413-4.0745-19.1493,0-11.8624.9873-15.9417,4.325-18.5377,3.2124-2.3455,8.2791-2.9668,26.6868-2.9668,30.8911,0,31.262.2504,31.262,21.0084,0,10.9955-.6165,15.2-2.9619,18.162Z" fill="#fff"/><path d="M878.4379,26.2063h71.049c14.5835,0,21.0084,1.2378,25.7042,5.1919,4.821,3.8289,7.0413,10.8702,7.0413,21.9909,0,15.3252-3.7037,21.3792-14.2079,23.7247,10.2537,1.7338,13.3458,6.0588,13.0953,18.5377v12.9749h-25.4538v-10.2586c-.1204-8.8956-2.5959-10.7498-13.837-10.4994h-38.4287v20.7579h-24.9625V26.2063ZM942.5708,67.727c12.108,0,14.4535-1.4834,14.4535-9.6421,0-5.3123-.4913-7.5374-2.0999-9.2664-1.8542-1.9747-3.9541-2.3455-11.4915-2.3455h-40.0325v21.254h39.1704Z" fill="#fff"/><path d="M1081.0857,77.6099c0,5.9336-1.3584,8.5247-4.9417,10.0081-3.4629,1.4834-6.1792,1.6086-24.8372,1.6086-24.0957,0-25.95-1.4834-25.95-21.254,0-13.3458.6165-16.6834,3.5833-19.3998,3.0874-2.7211,6.7959-3.2124,27.3081-3.2124,21.7451,0,23.5996.7417,24.0957,9.7625h23.9702v-2.7212c0-12.108-3.0872-19.3998-9.7625-22.7374-7.0413-3.458-13.7166-4.0745-44.4827-4.0745-23.1084,0-31.0166,1.1125-38.4287,5.4376-8.6499,4.9414-11.1206,12.7244-11.1206,34.4745,0,24.4664,2.3455,33.1164,10.5042,38.3035,6.6704,4.325,14.333,5.4375,38.0579,5.4375,16.4329,0,26.3206-.1252,31.3872-.6165,12.8499-.8669,19.5203-4.2046,22.7327-11.2459,1.729-3.7085,2.0999-7.783,2.2251-19.7706h-24.3411Z" fill="#fff"/><path d="M1216.5082,26.2063v18.6581h-66.6036v14.2127h62.7747v16.3077h-62.7747v14.5835h67.4705v18.6581h-92.1826V26.2063h91.3157Z" fill="#fff"/><path d="M91.1882,6.1698c-28.015,0-50.8059,22.7919-50.8059,50.807s22.7909,50.8069,50.8059,50.8069,50.8073-22.7918,50.8073-50.8069S119.2032,6.1698,91.1882,6.1698ZM91.1882,91.4936c-22.7591,0-41.2746-15.4842-41.2746-34.5168s18.5155-34.5169,41.2746-34.5169,41.275,15.4842,41.275,34.5169-18.5155,34.5168-41.275,34.5168Z" fill="#fefffd"/><path d="M135.6881,110.6987c-2.7144-2.698-6.7327-3.9585-12.631-3.9585-.089,0-.1794.0005-.2703.001l-.506.0034-.4088.2993c-8.9523,6.5625-19.5451,10.0312-30.6332,10.0312-11.0478,0-21.6122-3.4476-30.5481-9.971l-.4915-.3586-.6055.0678c-10.4759,1.1745-12.6228,8.1758-12.6228,18.3268,0,14.5879,12.7623,45.3747,37.9344,91.5037,1.7872,3.2771,4.996,5.249,8.5815,5.2758.025.001.0486.001.0736.001,3.5465,0,6.7414-1.9136,8.5589-5.1288,1.5419-2.7281,37.7642-67.1033,37.7642-91.8097,0-6.9956-1.2933-11.4005-4.1953-14.2833ZM113.6042,139.1711l-17.4895,30.2929c-1.1947,2.0687-4.1804,2.0687-5.3745,0l-17.49-30.2929c-1.3692-2.3718.7815-5.2253,3.4387-4.5622l15.987,3.9895c.4934.1231,1.0095.1231,1.5025,0l15.987-3.9895c2.6572-.6631,4.808,2.1903,3.4387,4.5622Z" fill="#fefffd"/><path d="M93.5634,223.2273c-.0254,0-.0508,0-.0762-.001-3.667-.0273-6.9473-2.0449-8.7754-5.3955-25.7432-47.1758-38.7949-78.6611-38.7949-93.5801,0-10.3809,2.1953-17.541,12.9092-18.7432l.6191-.0693.5029.3672c9.1396,6.6719,19.9424,10.1982,31.2412,10.1982,11.3379,0,22.1719-3.5479,31.3281-10.2598l.418-.3066.5186-.0029c.0908-.001.1826-.001.2734-.001,6.0332,0,10.1426,1.2891,12.9199,4.0488,2.9668,2.9482,4.29,7.4531,4.29,14.6074,0,25.2666-37.0439,91.1025-38.6211,93.8926-1.8584,3.2891-5.127,5.2451-8.7529,5.2451ZM58.579,108.7634c-7.1465.9883-9.4629,4.8555-9.4629,15.4873,0,14.1748,13.2803,46.0039,38.4043,92.0469,1.2637,2.3164,3.5029,3.7109,5.9912,3.7295h.0498c2.458,0,4.6865-1.3496,5.9697-3.6191,13.2148-23.3828,38.207-72.7686,38.207-92.3184,0-6.2334-1.0322-10.0391-3.3457-12.3379-2.1045-2.0898-5.4199-3.0859-10.4092-3.1182-9.6191,6.917-20.9463,10.5693-32.7939,10.5693-11.7695,0-23.0312-3.6074-32.6104-10.4395Z" fill="#525351"/><path d="M91.1893,110.0066c-29.4678,0-53.4414-23.9736-53.4414-53.4414S61.7216,3.1238,91.1893,3.1238s53.4404,23.9736,53.4404,53.4414-23.9727,53.4414-53.4404,53.4414ZM91.1893,6.324c-27.7031,0-50.2422,22.5381-50.2422,50.2412s22.5391,50.2422,50.2422,50.2422,50.2412-22.5386,50.2412-50.2422S118.8925,6.324,91.1893,6.324Z" fill="#525351"/><ellipse cx="91.1893" cy="56.5652" rx="41.8153" ry="34.7067" fill="#343534"/><path d="M76.5044,44.2696c9.8611-2.1861,10.8819,19.4239,1.5105,19.8962-8.4652.4269-9.3051-18.1688-1.5105-19.8962h0Z" fill="#65ec55" fill-rule="evenodd"/><path d="M103.5529,43.7114c7.7817-1.6243,10.8233,14.9905,3.5995,19.2804-9.7169,5.7691-13.1877-17.279-3.5995-19.2804h0Z" fill="#65ec55" fill-rule="evenodd"/><path d="M93.4266,172.1514c-1.5022,0-2.8486-.7775-3.6002-2.0788l-17.8866-30.9804c-.8486-1.4705-.741-3.2263.2806-4.5824,1.0226-1.3551,2.6795-1.9404,4.3268-1.531l16.3499,4.0798c.345.0865.7131.0865,1.0601,0l16.3499-4.0798c1.6434-.4085,3.3051.1759,4.3258,1.531,1.0226,1.3561,1.1302,3.112.2816,4.5824l-17.8866,30.9804c-.7516,1.3013-2.098,2.0788-3.6012,2.0788ZM75.5092,134.8183c-.6718,0-1.2878.3085-1.7165.8765-.5469.7247-.6016,1.6271-.148,2.4133l17.8866,30.9804c.396.6852,1.1043,1.0947,1.8952,1.0947.7919,0,1.5002-.4094,1.8962-1.0947l17.8866-30.9804c.4536-.7862.3988-1.6877-.148-2.4133-.5459-.7237-1.3955-1.0245-2.2778-.8063l-16.3499,4.0807c-.6593.1634-1.3542.1634-2.0135,0l-16.3499-4.0798c-.1893-.0481-.3777-.0711-.5613-.0711Z" fill="#525351"/><path d="M96.1752,169.5804l17.8865-30.9803c1.4004-2.4256-.7991-5.3439-3.5166-4.6657l-16.3498,4.08c-.5045.1259-1.0322.1259-1.5367,0l-16.3498-4.08c-2.7176-.6782-4.9171,2.2401-3.5166,4.6657l17.8865,30.9803c1.2214,2.1156,4.2751,2.1156,5.4965,0Z" fill="#65ec55"/><path d="M324.4367,144.6332h50.4113c9.2593,0,13.566,1.1902,16.7756,4.6762,2.4763,2.747,3.7567,7.4232,3.7567,14.0229,0,9.8995-2.2901,13.3855-9.8064,15.1228,6.233,1.1958,8.6162,4.3998,8.6162,11.462v15.8561h-7.333v-11.6425c.1833-10.5425-2.4763-13.1091-13.1091-13.0132h-41.9784v24.6557h-7.333v-61.14ZM372.0079,175.3414c12.5591,0,15.7659-2.4763,15.7659-12.3758,0-9.7134-3.2998-12.1896-16.2256-12.1896h-39.7785v24.5654h40.2382Z" fill="#fff"/><path d="M501.0934,149.5858c3.9429,4.1234,4.8567,8.8898,4.8567,25.5695,0,16.7756-.9138,21.542-4.8567,25.6654-4.6762,4.8623-9.3495,5.5956-34.4649,5.5956s-29.7888-.7333-34.4649-5.5956c-3.9429-4.1234-4.8567-8.8898-4.8567-25.5695,0-16.7756.9138-21.6322,4.8567-25.6654,4.6762-4.8623,9.3495-5.5956,34.8316-5.5956,24.6557,0,29.4221.8292,34.0983,5.5956ZM438.1202,154.1661c-2.5665,2.6568-3.2068,7.0566-3.2068,21.0851,0,13.9326.6402,18.3324,3.2068,20.9892,3.1193,3.2998,6.9663,3.7567,28.5083,3.7567s25.389-.5472,28.5083-3.7567c2.5665-2.6568,3.2068-7.0566,3.2068-20.9892,0-14.0285-.6402-18.4283-3.2068-21.0851-2.8429-3.1137-7.976-3.7567-28.1417-3.7567-21.0823,0-25.9418.643-28.875,3.7567Z" fill="#fff"/><path d="M539.614,144.6332h48.9503c8.9801,0,12.5563.8235,15.5797,3.5762,3.0263,2.8429,4.3095,6.5094,4.3095,12.7424,0,6.0469-1.3763,8.9801-5.2233,11.1799-1.3763.7333-2.0194,1.0097-2.9332,1.2861,7.1468,1.2804,10.3564,5.59,10.3564,14.2034,0,6.7858-1.2833,10.8189-4.3998,13.7521-3.3901,3.1137-7.6996,4.3998-14.9423,4.3998h-51.6974v-61.14ZM583.4313,170.9416c9.8064,0,12.0994-.2764,14.2062-1.5568,2.1999-1.3763,3.2068-4.0331,3.2068-8.3427,0-7.7899-3.1137-10.2661-13.1063-10.2661h-40.791v20.1656h36.4843ZM588.0116,199.6304c12.0994,0,15.0326-2.2901,15.0326-11.6425,0-9.3467-2.747-11.2702-16.6797-11.2702h-39.4175v22.9127h41.0646Z" fill="#fff"/><path d="M715.5346,149.5858c3.9429,4.1234,4.8567,8.8898,4.8567,25.5695,0,16.7756-.9138,21.542-4.8567,25.6654-4.6762,4.8623-9.3467,5.5956-34.4621,5.5956s-29.7888-.7333-34.4649-5.5956c-3.9429-4.1234-4.8567-8.8898-4.8567-25.5695,0-16.7756.9138-21.6322,4.8567-25.6654,4.6762-4.8623,9.3495-5.5956,34.8316-5.5956,24.6529,0,29.4193.8292,34.0955,5.5956ZM652.5642,154.1661c-2.5665,2.6568-3.2068,7.0566-3.2068,21.0851,0,13.9326.6402,18.3324,3.2068,20.9892,3.1193,3.2998,6.9663,3.7567,28.5083,3.7567s25.3862-.5472,28.5055-3.7567c2.5665-2.6568,3.2096-7.0566,3.2096-20.9892,0-14.0285-.643-18.4283-3.2096-21.0851-2.8429-3.1137-7.9732-3.7567-28.1388-3.7567-21.0823,0-25.9418.643-28.875,3.7567Z" fill="#fff"/><path d="M777.6166,150.776h-31.0748v-6.1428h69.3868v6.1428h-30.9789v54.9972h-7.333v-54.9972Z" fill="#fff"/><path d="M844.9107,144.6332h7.333v61.14h-7.333v-61.14Z" fill="#fff"/><path d="M958.9495,185.2409v2.5665c0,7.333-.7333,10.5425-3.1193,13.2896-2.2901,2.7527-5.3136,4.0331-10.9036,4.6762-3.486.2764-13.9326.643-22.185.643-22.0891,0-27.4986-.9194-31.9886-5.5956-3.9429-4.0331-4.8567-8.8898-4.8567-25.5695,0-19.0657,1.2804-23.928,7.5135-27.8653,4.6762-2.9332,9.719-3.3957,34.9275-3.3957,15.3033,0,20.6225.7333,24.3793,3.486,4.1234,2.8429,5.4095,6.6899,5.6859,16.4089h-7.1525v-1.5625c0-10.8133-2.5665-11.9132-28.2319-11.9132-29.3319,0-29.5124.0903-29.5124,24.8418,0,13.9326.6374,18.3324,3.2039,20.9892,2.9332,3.0234,7.6094,3.7567,24.7516,3.7567,27.4986,0,30.3415-1.0097,30.3415-11.2758v-3.4803h7.1468Z" fill="#fff"/><path d="M997.3799,186.7075v1.6471c0,6.1428,1.2804,8.6191,5.2233,9.8995,3.5762,1.1958,10.3564,1.743,21.3558,1.743,23.928,0,28.2319-1.8332,28.2319-12.0091,0-5.1331-1.5568-7.4232-5.6802-8.6134-4.0331-1.0999-4.3998-1.0999-31.7179-1.2861-11.0897-.0903-15.8561-.9138-19.6129-3.3901-3.6665-2.4763-5.1331-5.8664-5.1331-11.9132,0-9.1662,3.2998-14.3952,10.5369-16.4992,5.229-1.5625,13.2952-2.2958,25.8515-2.2958,14.1188,0,21.3558,1.0097,25.5751,3.6665,4.49,2.7527,5.8664,5.9623,6.1428,14.4854h-7.1525c-.0903-4.8567-.9138-7.0566-2.9332-8.6191-2.8429-2.1999-9.1662-3.1137-21.542-3.1137-24.1029,0-28.7791,1.9235-28.7791,11.7327,0,4.2136,1.1902,6.5997,3.7567,7.7899,3.2096,1.4666,5.9566,1.6527,23.2793,1.743,19.438.0903,23.6516.4569,28.0514,2.5665,4.9469,2.3804,6.9663,6.5094,6.9663,14.1131,0,8.4329-2.8429,13.4757-8.8898,15.7659-4.49,1.6527-11.462,2.2958-25.5751,2.2958-14.8464,0-21.8184-.643-26.7653-2.2958-5.4997-1.9235-8.5232-6.5997-8.5232-13.1993v-4.2136h7.333Z" fill="#fff"/><path d="M1085.9997,148.0121h-7.8477v-3.124h19.5195v3.124h-7.8223v13.5469h-3.8496v-13.5469Z" fill="#fff"/><path d="M1103.2761,144.8881h5.9482l7.8486,12.5469,7.8223-12.5469h5.874v16.6709h-3.7744l.1504-13.7217-8.623,13.7217h-3.0244l-8.5723-13.7217.0996,13.7217h-3.749v-16.6709Z" fill="#fff"/></svg>