<?xml version="1.0" encoding="UTF-8"?><svg id="Layer_1" xmlns="http://www.w3.org/2000/svg" viewBox="0 0 64 64"><path d="M31.9996,4.759c-15.1433,0-27.4628,12.32-27.4628,27.4634s12.3195,27.4634,27.4628,27.4634,27.4636-12.32,27.4636-27.4634S47.143,4.759,31.9996,4.759ZM31.9996,50.8803c-12.3023,0-22.3107-8.3699-22.3107-18.6579S19.6973,13.5646,31.9996,13.5646s22.311,8.3699,22.311,18.6579-10.0084,18.6579-22.311,18.6579Z" fill="#fefffd"/><path d="M32.0003,60.8875c-15.9286,0-28.8874-12.9588-28.8874-28.8875S16.0716,3.1126,32.0003,3.1126s28.8869,12.9588,28.8869,28.8874-12.9583,28.8875-28.8869,28.8875ZM32.0003,4.8424c-14.9748,0-27.1581,12.1828-27.1581,27.1576s12.1834,27.1581,27.1581,27.1581,27.1576-12.1831,27.1576-27.1581S46.975,4.8424,32.0003,4.8424Z" fill="#525351"/><ellipse cx="32.0002" cy="32" rx="22.603" ry="18.7605" fill="#343534"/><path d="M24.0624,25.3537c5.3303-1.1817,5.8822,10.4995.8165,10.7548-4.5758.2308-5.0298-9.8211-.8165-10.7548h0Z" fill="#65ec55" fill-rule="evenodd"/><path d="M38.6833,25.0519c4.2063-.878,5.8505,8.103,1.9457,10.4219-5.2524,3.1184-7.1285-9.3401-1.9457-10.4219h0Z" fill="#65ec55" fill-rule="evenodd"/></svg>
